<svg width="2079" height="720" xmlns="http://www.w3.org/2000/svg" xmlns:xlink="http://www.w3.org/1999/xlink" overflow="hidden"><g><rect x="0" y="0" width="2079" height="719.942" fill="#FFFFFF"/><path d="M1321.5 434.633C1321.5 413.555 1338.59 396.468 1359.67 396.468L1881.33 396.468C1902.41 396.468 1919.5 413.555 1919.5 434.633L1919.5 587.285C1919.5 608.363 1902.41 625.45 1881.33 625.45L1359.67 625.45C1338.59 625.45 1321.5 608.363 1321.5 587.285Z" stroke="#A5A5A5" stroke-width="1.33344" stroke-miterlimit="8" fill="#FFFFFF" fill-rule="evenodd"/><path d="M136.5 191.32C136.5 143.366 175.377 104.492 223.335 104.492L1180.67 104.492C1228.62 104.492 1267.5 143.366 1267.5 191.32L1267.5 538.622C1267.5 586.576 1228.62 625.45 1180.67 625.45L223.335 625.45C175.377 625.45 136.5 586.576 136.5 538.622Z" stroke="#000000" stroke-width="1.33344" stroke-miterlimit="8" fill="#FFFFFF" fill-rule="evenodd"/><text font-family="Arial,Arial_MSFontService,sans-serif" font-weight="700" font-size="32" transform="matrix(1 0 0 0.99992 145.138 79)">Training Pipelin</text><text font-family="Arial,Arial_MSFontService,sans-serif" font-weight="700" font-size="32" transform="matrix(1 0 0 0.99992 382.89 79)">e</text><text font-family="Arial,Arial_MSFontService,sans-serif" font-weight="400" font-size="24" transform="matrix(1 0 0 0.99992 424.766 185)">3D gaussian points</text><path d="M510.833 208.479 511.356 249.282 510.689 249.29 510.167 208.488ZM515.005 247.902 511.108 255.952 507.005 248.004Z" fill="#4472C4"/><path d="M415.5 278.811C415.5 272 421.022 266.479 427.833 266.479L594.166 266.479C600.978 266.479 606.5 272 606.5 278.811L606.5 328.14C606.5 334.951 600.978 340.473 594.166 340.473L427.833 340.473C421.022 340.473 415.5 334.951 415.5 328.14Z" stroke="#172C51" stroke-width="1.33344" stroke-miterlimit="8" fill="#ED7D31" fill-rule="evenodd"/><text fill="#FFFFFF" font-family="Arial,Arial_MSFontService,sans-serif" font-weight="400" font-size="24" transform="matrix(1 0 0 0.99992 445.906 297)">Appearance</text><text fill="#FFFFFF" font-family="Arial,Arial_MSFontService,sans-serif" font-weight="400" font-size="24" transform="matrix(1 0 0 0.99992 477.909 326)">Model</text><text font-family="Arial,Arial_MSFontService,sans-serif" font-weight="400" font-size="24" transform="matrix(1 0 0 0.99992 177.468 294)">appearance</text><text font-family="Arial,Arial_MSFontService,sans-serif" font-weight="400" font-size="24" transform="matrix(1 0 0 0.99992 177.468 323)">embedding</text><path d="M7.86979e-07-0.333333 82.2699-0.333139 82.2699 0.333528-7.86979e-07 0.333333ZM80.9366-3.99981 88.9366 0.000209974 80.9366 4.00019Z" transform="matrix(1.00008 0 0 -1 319.5 300.476)"/><path d="M719.5 485.795C719.5 477.327 726.365 470.462 734.834 470.462L895.166 470.462C903.635 470.462 910.5 477.327 910.5 485.795L910.5 547.122C910.5 555.59 903.635 562.455 895.166 562.455L734.834 562.455C726.365 562.455 719.5 555.59 719.5 547.122Z" stroke="#172C51" stroke-width="1.33344" stroke-miterlimit="8" fill="#00B0F0" fill-rule="evenodd"/><text fill="#FFFFFF" font-family="Arial,Arial_MSFontService,sans-serif" font-weight="400" font-size="24" transform="matrix(1 0 0 0.99992 750.8 510)">Background</text><text fill="#FFFFFF" font-family="Arial,Arial_MSFontService,sans-serif" font-weight="400" font-size="24" transform="matrix(1 0 0 0.99992 782.136 539)">Model</text><path d="M642.5 542.123 691.078 542.123 691.078 542.79 642.5 542.79ZM689.744 538.457 697.745 542.457 689.744 546.457Z"/><text font-family="Arial,Arial_MSFontService,sans-serif" font-weight="400" font-size="24" transform="matrix(1 0 0 0.99992 493.391 542)">ray</text><text font-family="Arial,Arial_MSFontService,sans-serif" font-weight="400" font-size="24" transform="matrix(1 0 0 0.99992 493.391 571)">directions</text><path d="M1093.5 400.635C1093.5 396.677 1096.71 393.468 1100.67 393.468L1202.33 393.468C1206.29 393.468 1209.5 396.677 1209.5 400.635L1209.5 429.299C1209.5 433.257 1206.29 436.465 1202.33 436.465L1100.67 436.465C1096.71 436.465 1093.5 433.257 1093.5 429.299Z" stroke="#172C51" stroke-width="1.33344" stroke-miterlimit="8" fill="#FFC000" fill-rule="evenodd"/><text fill="#FFFFFF" font-family="Arial,Arial_MSFontService,sans-serif" font-weight="400" font-size="24" transform="matrix(1 0 0 0.99992 1117.7 423)">Image</text><path d="M719.5 279.478C719.5 273.403 724.425 268.478 730.5 268.478L899.5 268.478C905.575 268.478 910.5 273.403 910.5 279.478L910.5 323.474C910.5 329.549 905.575 334.473 899.5 334.473L730.5 334.473C724.425 334.473 719.5 329.549 719.5 323.474Z" stroke="#172C51" stroke-width="1.33344" stroke-miterlimit="8" fill="#2F5597" fill-rule="evenodd"/><text fill="#FFFFFF" font-family="Arial,Arial_MSFontService,sans-serif" font-weight="400" font-size="24" transform="matrix(1 0 0 0.99992 744.799 310)">Rasterization</text><text font-family="Arial,Arial_MSFontService,sans-serif" font-weight="400" font-size="24" transform="matrix(1 0 0 0.99992 637.404 286)">rgb</text><path d="M619.5 301.142 694.814 301.143 694.814 301.809 619.5 301.809ZM693.48 297.476 701.481 301.476 693.48 305.476Z" fill="#4472C4"/><path d="M0 0 157.063 0.000104987" stroke="#000000" stroke-width="0.666667" stroke-miterlimit="8" fill="none" fill-rule="evenodd" transform="matrix(1.00008 0 0 -1 658.5 177.486)"/><path d="M815.833 177.486 815.833 249.02 815.167 249.02 815.167 177.486ZM819.5 247.687 815.5 255.687 811.5 247.687Z"/><text font-family="Arial,Arial_MSFontService,sans-serif" font-weight="400" font-size="24" transform="matrix(1 0 0 0.99992 651.936 159)">scale; rot.; opac.</text><text font-family="Arial,Arial_MSFontService,sans-serif" font-weight="400" font-size="24" transform="matrix(1 0 0 0.99992 665.009 393)">accumulation</text><text font-family="Arial,Arial_MSFontService,sans-serif" font-weight="400" font-size="24" transform="matrix(1 0 0 0.99992 749.016 422)">mask</text><path d="M815.833 340.473 815.833 452.591 815.167 452.591 815.167 340.473ZM819.5 451.258 815.5 459.258 811.5 451.258Z"/><path d="M910.5 516.459 992.734 516.459" stroke="#000000" stroke-width="0.66672" stroke-miterlimit="8" fill="none" fill-rule="evenodd"/><path d="M910.5 301.476 992.734 302.083" stroke="#000000" stroke-width="0.66672" stroke-miterlimit="8" fill="none" fill-rule="evenodd"/><path d="M0-22.9982 23.8314-22.9982 23.8314 4.9996 6.35732e-07 4.9996Z" fill="#FFFFFF" fill-rule="evenodd" transform="matrix(1.00008 0 0 1 983.203 418.573)"/><text fill="#333333" font-family="Cambria Math,Cambria Math_MSFontService,sans-serif" font-weight="400" font-size="24" transform="matrix(1 0 0 0.99992 983.203 419)">⊕</text><path d="M992.833 301.476 992.833 384.433 992.167 384.433 992.167 301.476ZM996.5 383.1 992.5 391.1 988.5 383.1Z"/><path d="M0.333333-4.06546e-07 0.33343 79.4138-0.333236 79.4138-0.333333 4.06546e-07ZM4.00009 78.0804 0.000104987 86.0804-3.9999 78.0804Z" transform="matrix(1.00008 0 0 -1 992.5 516.546)"/><text font-family="Arial,Arial_MSFontService,sans-serif" font-weight="400" font-size="24" transform="matrix(1 0 0 0.99992 922.401 277)">foreground</text><text font-family="Arial,Arial_MSFontService,sans-serif" font-weight="400" font-size="24" transform="matrix(1 0 0 0.99992 926.236 553)">background</text><path d="M243.5 334.473 244.829 490.558" stroke="#000000" stroke-width="0.66672" stroke-miterlimit="8" fill="none" fill-rule="evenodd"/><path d="M244.5 491.127 694.78 491.127 694.78 491.794 244.5 491.794ZM693.447 487.461 701.448 491.461 693.447 495.461Z"/><path d="M1011.5 410.134 1080.33 410.442 1080.33 411.109 1011.5 410.8ZM1079.02 406.769 1087 410.805 1078.98 414.769Z"/><text font-family="Arial,Arial_MSFontService,sans-serif" font-weight="400" font-size="24" transform="matrix(1 0 0 0.99992 1017.8 446)">robust</text><text font-family="Arial,Arial_MSFontService,sans-serif" font-weight="400" font-size="24" transform="matrix(1 0 0 0.99992 1017.8 475)">mask</text><path d="M0.333333-9.06102e-07 0.33342 31.9555-0.333246 31.9555-0.333333 9.06102e-07ZM4.00008 30.6221 0.000104987 38.6222-3.99992 30.6222Z" transform="matrix(1.00008 0 0 -1 1144.5 385.094)"/><path d="M1160.83 346.472 1160.83 378.428 1160.17 378.428 1160.17 346.472ZM1164.5 377.094 1160.5 385.094 1156.5 377.094Z"/><path d="M1093.5 281.644C1093.5 276.03 1098.05 271.478 1103.67 271.478L1199.33 271.478C1204.95 271.478 1209.5 276.03 1209.5 281.644L1209.5 322.307C1209.5 327.922 1204.95 332.473 1199.33 332.473L1103.67 332.473C1098.05 332.473 1093.5 327.922 1093.5 322.307Z" stroke="#172C51" stroke-width="1.33344" stroke-miterlimit="8" fill="#70AD47" fill-rule="evenodd"/><text fill="#FFFFFF" font-family="Arial,Arial_MSFontService,sans-serif" font-weight="400" font-size="24" transform="matrix(1 0 0 0.99992 1113.7 295)">ground</text><text fill="#FFFFFF" font-family="Arial,Arial_MSFontService,sans-serif" font-weight="400" font-size="24" transform="matrix(1 0 0 0.99992 1127.03 324)">truth</text><text font-family="Arial,Arial_MSFontService,sans-serif" font-weight="400" font-size="24" transform="matrix(1 0 0 0.99992 277.019 235)">appearance features</text><path d="M0-19.9984 21.165-19.9984 21.165 4.9996-6.35732e-07 4.9996Z" fill="#FFFFFF" fill-rule="evenodd" transform="matrix(1.00008 0 0 1 134.253 664.194)"/><path d="M0-19.9984 5.99952-19.9984 5.99952 4.9996 0 4.9996Z" fill="#FFFFFF" fill-rule="evenodd" transform="matrix(1.00008 0 0 1 155.421 664.194)"/><path d="M0-19.9984 228.315-19.9984 228.315 4.9996-5.08586e-06 4.9996Z" fill="#FFFFFF" fill-rule="evenodd" transform="matrix(1.00008 0 0 1 161.421 664.194)"/><text fill="#333333" font-family="Cambria Math,Cambria Math_MSFontService,sans-serif" font-weight="400" font-size="21" transform="matrix(1 0 0 0.99992 134.253 664)">⊕</text><text fill="#333333" font-family="Arial,Arial_MSFontService,sans-serif" font-weight="400" font-size="21" transform="matrix(1 0 0 0.99992 155.421 664)"></text><text fill="#333333" font-family="Arial,Arial_MSFontService,sans-serif" font-weight="400" font-size="21" transform="matrix(1 0 0 0.99992 161.421 664)">indicates alpha blending</text><path d="M1321.5 142.823C1321.5 121.653 1338.66 104.492 1359.83 104.492L1881.17 104.492C1902.34 104.492 1919.5 121.653 1919.5 142.823L1919.5 296.142C1919.5 317.312 1902.34 334.473 1881.17 334.473L1359.83 334.473C1338.66 334.473 1321.5 317.312 1321.5 296.142Z" stroke="#A5A5A5" stroke-width="1.33344" stroke-miterlimit="8" fill="#FFFFFF" fill-rule="evenodd"/><rect x="1636.5" y="124.49" width="14" height="184.985" stroke="#172C51" stroke-width="1.33344" stroke-miterlimit="8" fill="#4472C4"/><rect x="1659.5" y="124.49" width="15" height="184.985" stroke="#172C51" stroke-width="1.33344" stroke-miterlimit="8" fill="#4472C4"/><rect x="1682.5" y="124.49" width="15" height="184.985" stroke="#172C51" stroke-width="1.33344" stroke-miterlimit="8" fill="#4472C4"/><rect x="1639.5" y="195.484" width="53.9999" height="43.9965" stroke="#70AD47" stroke-width="1.33344" stroke-miterlimit="8" fill="#FFFFFF"/><text font-family="Arial,Arial_MSFontService,sans-serif" font-weight="400" font-size="16" transform="matrix(1 0 0 0.99992 1649.84 223)">MLP</text><path d="M1519.5 163.154 1619.68 163.154 1619.68 163.82 1519.5 163.82ZM1618.34 159.487 1626.34 163.487 1618.34 167.487Z"/><text font-family="Arial,Arial_MSFontService,sans-serif" font-weight="400" font-size="21" transform="matrix(1 0 0 0.99992 1366.12 151)">appearance</text><text font-family="Arial,Arial_MSFontService,sans-serif" font-weight="400" font-size="21" transform="matrix(1 0 0 0.99992 1366.12 176)">embedding</text><text font-family="Arial,Arial_MSFontService,sans-serif" font-weight="400" font-size="19" transform="matrix(1 0 0 0.99992 1371.29 199)">(48 dim)</text><path d="M1519.5 270.145 1619.82 270.145 1619.82 270.812 1519.5 270.812ZM1618.49 266.478 1626.49 270.478 1618.49 274.478Z"/><text font-family="Arial,Arial_MSFontService,sans-serif" font-weight="400" font-size="21" transform="matrix(1 0 0 0.99992 1369.86 260)">gaussian</text><text font-family="Arial,Arial_MSFontService,sans-serif" font-weight="400" font-size="21" transform="matrix(1 0 0 0.99992 1369.86 285)">appearance</text><text font-family="Arial,Arial_MSFontService,sans-serif" font-weight="400" font-size="21" transform="matrix(1 0 0 0.99992 1369.86 311)">features</text><text font-family="Arial,Arial_MSFontService,sans-serif" font-weight="400" font-size="19" transform="matrix(1 0 0 0.99992 1453.04 311)">(72 dim)</text><path d="M1763.5 197.318C1763.5 192.44 1767.45 188.485 1772.33 188.485L1852.67 188.485C1857.55 188.485 1861.5 192.44 1861.5 197.318L1861.5 232.648C1861.5 237.526 1857.55 241.481 1852.67 241.481L1772.33 241.481C1767.45 241.481 1763.5 237.526 1763.5 232.648Z" stroke="#172C51" stroke-width="1.33344" stroke-miterlimit="8" fill="#ED7D31" fill-rule="evenodd"/><text fill="#FFFFFF" font-family="Arial,Arial_MSFontService,sans-serif" font-weight="400" font-size="21" transform="matrix(1 0 0 0.99992 1788.66 223)">color</text><path d="M1706.51 214.15 1743.56 214.929 1743.54 215.595 1706.49 214.816ZM1742.3 211.235 1750.22 215.402 1742.13 219.233Z"/><text font-family="Arial,Arial_MSFontService,sans-serif" font-weight="700" font-size="24" transform="matrix(1 0 0 0.99992 1330.24 85)">Appearance Model</text><text font-family="Arial,Arial_MSFontService,sans-serif" font-weight="700" font-size="24" transform="matrix(1 0 0 0.99992 1330.24 374)">Background Model</text><rect x="1598.5" y="416.467" width="15" height="178.986" stroke="#172C51" stroke-width="1.33344" stroke-miterlimit="8" fill="#FFC000"/><rect x="1621.5" y="416.467" width="15" height="178.986" stroke="#172C51" stroke-width="1.33344" stroke-miterlimit="8" fill="#FFC000"/><rect x="1644.5" y="416.467" width="15" height="178.986" stroke="#172C51" stroke-width="1.33344" stroke-miterlimit="8" fill="#FFC000"/><rect x="1602.5" y="484.461" width="53" height="42.9966" stroke="#70AD47" stroke-width="1.33344" stroke-miterlimit="8" fill="#FFFFFF"/><text font-family="Arial,Arial_MSFontService,sans-serif" font-weight="400" font-size="16" transform="matrix(1 0 0 0.99992 1611.83 512)">MLP</text><text font-family="Arial,Arial_MSFontService,sans-serif" font-weight="400" font-size="21" transform="matrix(1 0 0 0.99992 1361.92 536)">appearance</text><text font-family="Arial,Arial_MSFontService,sans-serif" font-weight="400" font-size="21" transform="matrix(1 0 0 0.99992 1361.92 561)">embedding</text><text font-family="Arial,Arial_MSFontService,sans-serif" font-weight="400" font-size="19" transform="matrix(1 0 0 0.99992 1361.92 584)">(48dim)</text><text font-family="Arial,Arial_MSFontService,sans-serif" font-weight="400" font-size="21" transform="matrix(1 0 0 0.99992 1364.21 462)">ray</text><text font-family="Arial,Arial_MSFontService,sans-serif" font-weight="400" font-size="21" transform="matrix(1 0 0 0.99992 1364.21 487)">directions</text><path d="M1461.5 467.129 1571.96 467.129 1571.96 467.796 1461.5 467.796ZM1570.63 463.463 1578.63 467.463 1570.63 471.463Z"/><path d="M1503.5 549.123 1575.03 549.123 1575.03 549.789 1503.5 549.789ZM1573.69 545.456 1581.69 549.456 1573.69 553.456Z"/><path d="M1667.5 504.126 1709 504.126 1709 504.793 1667.5 504.793ZM1707.67 500.46 1715.67 504.46 1707.67 508.46Z"/><path d="M1720.5 486.294C1720.5 480.312 1725.35 475.462 1731.33 475.462L1872.67 475.462C1878.65 475.462 1883.5 480.312 1883.5 486.294L1883.5 529.624C1883.5 535.607 1878.65 540.457 1872.67 540.457L1731.33 540.457C1725.35 540.457 1720.5 535.607 1720.5 529.624Z" stroke="#172C51" stroke-width="1.33344" stroke-miterlimit="8" fill="#00B0F0" fill-rule="evenodd"/><text fill="#FFFFFF" font-family="Arial,Arial_MSFontService,sans-serif" font-weight="400" font-size="21" transform="matrix(1 0 0 0.99992 1745.97 516)">background</text><text font-family="Arial,Arial_MSFontService,sans-serif" font-weight="400" font-size="19" transform="matrix(1 0 0 0.99992 1464.6 449)">SH encoding</text></g></svg>